<?xml version="1.0" encoding="UTF-8" standalone="no"?>
<svg
   xmlns:dc="http://purl.org/dc/elements/1.1/"
   xmlns:cc="http://creativecommons.org/ns#"
   xmlns:rdf="http://www.w3.org/1999/02/22-rdf-syntax-ns#"
   xmlns:svg="http://www.w3.org/2000/svg"
   xmlns="http://www.w3.org/2000/svg"
   xmlns:sodipodi="http://sodipodi.sourceforge.net/DTD/sodipodi-0.dtd"
   xmlns:inkscape="http://www.inkscape.org/namespaces/inkscape"
   height="512"
   id="Layer_1"
   version="1.1"
   viewBox="0 0 512 512"
   width="512"
   xml:space="preserve"
   sodipodi:docname="fsharp.svg"
   inkscape:version="0.92.4 (5da689c313, 2019-01-14)"><metadata
     id="metadata12"><rdf:RDF><cc:Work
         rdf:about=""><dc:format>image/svg+xml</dc:format><dc:type
           rdf:resource="http://purl.org/dc/dcmitype/StillImage" /><dc:title></dc:title></cc:Work></rdf:RDF></metadata><sodipodi:namedview
     pagecolor="#ffffff"
     bordercolor="#666666"
     borderopacity="1"
     objecttolerance="10"
     gridtolerance="10"
     guidetolerance="10"
     inkscape:pageopacity="0"
     inkscape:pageshadow="2"
     inkscape:window-width="1920"
     inkscape:window-height="1017"
     id="namedview10"
     showgrid="false"
     showguides="false"
     inkscape:guide-bbox="true"
     inkscape:snap-global="true"
     inkscape:snap-to-guides="true"
     inkscape:zoom="1.0289025"
     inkscape:cx="-38.199236"
     inkscape:cy="223.28732"
     inkscape:window-x="-8"
     inkscape:window-y="-8"
     inkscape:window-maximized="1"
     inkscape:current-layer="Layer_1"
     inkscape:pagecheckerboard="true"><inkscape:grid
       type="xygrid"
       id="grid4643" /><sodipodi:guide
       position="510,510"
       orientation="-0.70710678,0.70710678"
       id="guide4661"
       inkscape:locked="false" /><sodipodi:guide
       position="140,370"
       orientation="0.70710678,0.70710678"
       id="guide4663"
       inkscape:locked="false" /><sodipodi:guide
       position="260,300"
       orientation="0,1"
       id="guide4665"
       inkscape:locked="false" /><sodipodi:guide
       position="255,255"
       orientation="1,0"
       id="guide4527"
       inkscape:locked="false" /><sodipodi:guide
       position="255,255"
       orientation="0,1"
       id="guide4529"
       inkscape:locked="false" /></sodipodi:namedview><defs
     id="defs12"><inkscape:path-effect
       effect="powerstroke"
       id="path-effect3739"
       is_visible="true"
       offset_points="0,0.5"
       sort_points="true"
       interpolator_type="CubicBezierJohan"
       interpolator_beta="0.2"
       start_linecap_type="zerowidth"
       linejoin_type="extrp_arc"
       miter_limit="4"
       end_linecap_type="zerowidth" /></defs><path
     style="fill:#fffff7;fill-opacity:1;stroke:none;stroke-width:92.57857513;stroke-miterlimit:4;stroke-dasharray:none;stroke-opacity:1"
     d="M 30.128906 -0.1953125 C 13.975772 -0.1953125 0.97265625 12.807803 0.97265625 28.960938 L 0.97265625 480.89844 C 0.97265625 497.05157 13.975772 510.05664 30.128906 510.05664 L 481.0957 510.05664 C 497.24884 510.05664 510.25195 497.05157 510.25195 480.89844 L 510.25195 28.960938 C 510.25195 12.807803 497.24884 -0.1953125 481.0957 -0.1953125 L 30.128906 -0.1953125 z M 136.67578 94.962891 L 188.44531 94.962891 L 188.44531 142.68164 L 151.03516 142.68164 C 141.46214 142.68164 134.78663 144.57676 131.00781 148.36719 C 127.22899 152.02224 125.33789 158.45093 125.33789 167.65625 L 125.33789 183.49609 L 183.1543 183.49609 L 183.1543 235.47852 L 125.33789 235.47852 L 125.33789 410.92188 L 57.697266 410.92188 L 57.697266 235.47852 L 24.066406 235.47852 L 24.066406 183.49609 L 57.697266 183.49609 L 57.697266 167.65625 C 57.697266 142.88311 64.122707 124.60943 76.970703 112.83203 C 89.8187 100.91926 109.72018 94.962891 136.67578 94.962891 z M 315.22461 112.42578 L 357.35938 112.42578 L 339.2207 190.60352 L 389.10156 190.60352 L 407.42773 112.42578 L 449.18359 112.42578 L 430.85742 190.60352 L 483.19336 190.60352 L 483.19336 233.85352 L 420.8418 233.85352 L 407.80664 289.49219 L 461.46484 289.49219 L 461.46484 333.15039 L 397.98047 333.15039 L 379.8418 410.92188 L 338.08594 410.92188 L 356.22461 333.15039 L 306.34375 333.15039 L 288.20508 410.92188 L 246.07227 410.92188 L 264.21094 333.15039 L 211.49609 333.15039 L 211.49609 289.49219 L 273.46875 289.49219 L 286.69531 233.85352 L 233.22461 233.85352 L 233.22461 190.60352 L 297.08594 190.60352 L 315.22461 112.42578 z M 328.82812 233.85352 L 315.60156 289.49219 L 365.48242 289.49219 L 378.70898 233.85352 L 328.82812 233.85352 z "
     id="rect836" /><g
     id="g5891"
     transform="translate(-748.60088)"
     sodipodi:insensitive="true"
     style="display:none" /><rect
     style="display:none;fill:#3987c8;fill-opacity:1;stroke:#3987c8;stroke-width:80;stroke-linecap:square;stroke-linejoin:bevel;stroke-miterlimit:29.60000038;stroke-dasharray:none;stroke-opacity:1"
     id="rect4947"
     width="430"
     height="430"
     x="40"
     y="42"
     rx="0"
     ry="0"
     sodipodi:insensitive="true" /><g
     id="g4647"
     style="display:none;fill:#0083be;fill-opacity:1;stroke:#0083be;stroke-width:20;stroke-miterlimit:4;stroke-dasharray:none;stroke-opacity:1"
     sodipodi:insensitive="true" /><g
     inkscape:groupmode="layer"
     id="layer3"
     inkscape:label="Layer 1" /><g
     aria-label="f#"
     transform="matrix(0.89637401,0,0,0.96334977,20.753705,12.791389)"
     style="font-style:normal;font-weight:normal;font-size:431.6852417px;line-height:1.25;font-family:sans-serif;letter-spacing:0px;word-spacing:0px;fill:#d7e9f3;fill-opacity:1;stroke:none;stroke-width:2.24836087"
     id="text4549" /></svg>